<svg width="273" height="41" viewBox="0 0 273 41" fill="none" xmlns="http://www.w3.org/2000/svg">
<path d="M14.8577 35.2158H20.1233V4.89667H12.4429C4.72898 4.89667 0.670777 8.85425 0.670777 14.7236C0.670777 19.3855 2.88434 22.1356 6.87546 24.9529L0 35.2158H5.7016L13.382 23.7455L10.7324 21.9679C7.47916 19.7879 5.90284 18.0774 5.90284 14.4217C5.90284 11.202 8.18348 9.02195 12.4764 9.02195H14.8242V35.2158H14.8577ZM116.581 35.6518C118.962 35.6518 120.673 35.2158 121.947 34.3102V30.0843C120.639 30.9899 119.063 31.56 116.883 31.56C113.16 31.56 111.651 28.6757 111.651 24.148C111.651 19.3855 113.529 16.9371 116.916 16.9371C118.929 16.9371 120.874 17.6414 121.914 18.2787V13.8851C120.84 13.2814 118.895 12.8454 116.346 12.8454C109.706 12.8454 106.285 17.6079 106.285 24.2821C106.285 31.5936 109.638 35.6518 116.581 35.6518ZM84.1489 33.7401V29.5142C82.5391 30.5874 79.8224 31.56 77.307 31.56C73.5171 31.56 72.075 29.7825 71.8737 26.1268H84.3837V23.3766C84.3837 15.7297 81.0298 12.8789 75.8313 12.8789C69.4925 12.8454 66.474 17.675 66.474 24.3157C66.474 31.9625 70.2303 35.6518 76.8375 35.6518C80.1578 35.6518 82.6062 34.7798 84.1489 33.7401ZM36.6244 13.2814V21.9679H29.6819V13.2814H24.4834V35.2158H29.6819V26.0597H36.6244V35.2158H41.8229V13.2814H36.6244ZM65.1995 31.124H62.8853V13.2814H47.7593V15.1596C47.7593 20.5258 47.4239 27.4683 45.5793 31.124H43.9694V40.2466H48.7655V35.2158H60.4034V40.2131H65.1995V31.124ZM100.717 35.2158H106.586L98.2688 23.4101L105.58 13.2814H100.348L93.0368 23.4101V13.2814H87.8382V35.2158H93.0368V24.4498L100.717 35.2158ZM75.7307 16.9371C78.3132 16.9371 79.0846 19.0836 79.0846 21.8338V22.2698H71.8402C71.9743 18.7818 73.2488 16.9371 75.7307 16.9371ZM57.7203 31.124H50.3753C51.8175 27.8037 52.22 21.8338 52.22 18.0439V17.4067H57.7203V31.124Z" fill="white"/>
<path fill-rule="evenodd" clip-rule="evenodd" d="M171.383 20.1233C171.383 31.2381 162.375 40.2466 151.26 40.2466C140.145 40.2466 131.137 31.2381 131.137 20.1233C131.137 9.00853 140.145 0 151.26 0C153.43 0 155.523 0.34545 157.482 0.979334L152.894 15.0925H139.501L137.865 20.1233H151.26L147.336 32.1973H152.87L156.794 20.1233H171.383ZM170.75 15.0925H158.431L162.271 3.27674C166.406 5.98668 169.485 10.1757 170.75 15.0925Z" fill="white"/>
<path d="M201.414 4.91341H181.445V35.2157H186.721V9.01185H196.139V35.2157H201.414V4.91341Z" fill="white"/>
<path d="M203.743 30.7249L204.048 30.9429C204.251 31.0591 204.542 31.1173 204.92 31.1173C205.763 31.1173 206.315 30.6813 206.577 29.8093C206.838 28.9372 207.013 27.3386 207.1 25.0132L207.536 13.2847H222.404V35.2157H217.215V17.3831H211.939L211.634 25.2312C211.547 27.6438 211.329 29.6203 210.98 31.1609C210.631 32.7014 210.05 33.835 209.236 34.5617C208.422 35.2884 207.274 35.6517 205.792 35.6517C205.181 35.6517 204.687 35.5791 204.309 35.4337L203.743 35.2157V30.7249Z" fill="white"/>
<path d="M266.637 35.6517C263.178 35.6517 260.591 34.678 258.876 32.7305C257.191 30.7539 256.348 27.9344 256.348 24.272C256.348 22.0338 256.725 20.0573 257.481 18.3423C258.237 16.6274 259.356 15.2903 260.838 14.3311C262.35 13.3428 264.21 12.8487 266.419 12.8487C267.698 12.8487 268.803 12.9504 269.733 13.1539C270.692 13.3283 271.448 13.5753 272 13.8951V18.2987C271.477 17.979 270.765 17.6738 269.864 17.3831C268.963 17.0924 268.003 16.9471 266.986 16.9471C265.3 16.9471 263.992 17.5575 263.062 18.7783C262.161 19.9701 261.71 21.7577 261.71 24.1412C261.71 26.4084 262.117 28.2106 262.931 29.5477C263.745 30.8847 265.082 31.5533 266.943 31.5533C268.047 31.5533 269.006 31.4225 269.82 31.1609C270.634 30.8993 271.361 30.5359 272 30.0709V34.3001C270.75 35.2012 268.963 35.6517 266.637 35.6517Z" fill="white"/>
<path fill-rule="evenodd" clip-rule="evenodd" d="M251.008 15.8135C249.264 13.8369 246.997 12.8487 244.206 12.8487C241.736 12.8487 239.657 13.6335 237.972 15.2031C236.286 16.7436 235.254 18.9963 234.876 21.9612H231.911V13.2847H226.723V35.2157H231.911V26.0596H234.832C235.123 29.1698 236.111 31.5533 237.797 33.2101C239.512 34.8378 241.648 35.6517 244.206 35.6517C246.997 35.6517 249.264 34.678 251.008 32.7305C252.781 30.7539 253.668 27.9199 253.668 24.2284C253.668 20.566 252.781 17.761 251.008 15.8135ZM247.258 29.8093C246.59 30.9719 245.573 31.5533 244.206 31.5533C242.84 31.5533 241.808 30.9719 241.111 29.8093C240.442 28.6466 240.108 26.8008 240.108 24.272C240.108 21.7141 240.442 19.8538 241.111 18.6911C241.808 17.5285 242.84 16.9471 244.206 16.9471C245.573 16.9471 246.59 17.5285 247.258 18.6911C247.956 19.8538 248.305 21.6996 248.305 24.2284C248.305 26.7863 247.956 28.6466 247.258 29.8093Z" fill="white"/>
</svg>
