<svg width="206" height="58" viewBox="0 0 206 58" fill="none" xmlns="http://www.w3.org/2000/svg">
<g clip-path="url(#clip0_1_15560)">
<g clip-path="url(#clip1_1_15560)">
<path d="M66.6915 56.1269L67.7099 57.9423H65.6289L3.09575 57.9718H1L2.06264 56.1417L33.2775 2.21297L34.3107 0.382877L35.3733 2.21297C45.8225 20.1597 56.4932 38.0326 66.6915 56.1269Z" fill="white"/>
<path d="M34.3252 4.30873L4.42386 55.9498L64.3004 55.9351L61.0535 50.1644H15.2864L23.935 34.948L26.9015 34.9038L18.6956 49.0575H26.3555L42.8853 18.9938L39.3285 12.8836L30.4141 28.6017H27.3591L37.8083 10.2713L34.3252 4.30873Z" fill="#060B04"/>
<path d="M37.9263 31.5683L44.0217 41.6043L49.9843 31.1993L60.3745 49.0279L53.2902 49.0132L49.8662 43.2425L46.7373 49.0132H41.0699L37.8968 43.5081L34.6351 49.0279H28.3036L37.9263 31.5683Z" fill="#E5312A"/>
<path d="M41.9264 33.3098C41.6902 33.1179 41.4689 32.9261 41.2918 32.749C40.3915 31.8192 40.2291 30.7565 40.4062 29.384C40.5981 28.4542 40.908 27.5981 41.2918 26.7716C41.5722 26.1518 41.8821 25.5909 42.2363 25.0153C41.6165 27.7605 41.5722 30.4909 41.9264 33.3098ZM48.1841 28.1295L43.6384 20.263C42.9447 21.4732 42.0887 22.831 41.2918 24.2036C40.0815 26.3584 39.0189 28.6608 38.9894 30.8451C38.9894 32.1439 39.8897 33.6935 41.2918 34.6086C42.0297 35.0809 42.8857 35.3908 43.8008 35.3908C46.5016 35.3908 48.6859 33.4722 48.7007 30.668C48.7007 29.8858 48.5088 28.9412 48.1841 28.1295Z" fill="#060B04"/>
<path d="M82.7935 27.4063H79.2662V21.8274H74.7205V27.4063H71.1931V13.9167H74.7205V18.7281H79.2662V13.9167H82.7935V27.4063Z" fill="white"/>
<path d="M96.1941 16.7504H88.9475V19.0823H95.5742V21.8127H88.9475V24.4398H96.3712V27.4063H85.4644V13.9167H96.1941V16.7504Z" fill="white"/>
<path d="M107.337 23.2295C108.724 22.9786 109.58 21.9603 109.58 20.5287C109.58 19.0085 108.783 18.1673 107.337 17.9754V23.2443V23.2295ZM101.64 20.5287C101.64 21.9603 102.467 22.9934 103.869 23.2295V17.9606C102.422 18.1525 101.64 19.0085 101.64 20.5139M107.337 27.4063H103.869V26.0189C100.445 25.768 98.0536 23.8494 98.0536 20.5139C98.0536 17.1784 100.415 15.4369 103.869 15.2155V13.9315H107.337V15.2155C110.805 15.4369 113.152 17.3408 113.152 20.5139C113.152 23.6871 110.761 25.7828 107.337 26.0189V27.4063Z" fill="white"/>
<path d="M125.55 16.9128H121.58V27.4063H118.038V16.9128H114.053V13.9167H125.55V16.9128Z" fill="white"/>
<path d="M132.664 21.1633H130.878V24.5431H132.767C134.258 24.5431 134.996 24.1446 134.996 22.8458C134.996 21.3552 133.889 21.1781 132.678 21.1781M133.269 27.4063H127.365V13.9167H130.878V18.4182H133.461C136.59 18.4182 138.567 19.8202 138.567 22.8458C138.567 26.1075 136.604 27.3915 133.269 27.3915" fill="white"/>
<path d="M71.0899 31.3174H76.1817L78.6317 40.6597L81.1407 31.3174H86.0849V44.7922H82.7789L82.9412 34.5053L79.9452 44.7922H77.2591L74.2778 34.5348L74.3959 44.7922H71.0899V31.3174Z" fill="#060B04"/>
<path d="M94.2311 35.0809L92.6814 39.8037H95.7365L94.2311 35.0809ZM101.005 44.7922H97.3895L96.5187 42.3274H91.8844L90.9989 44.7922H87.4125L92.4453 31.2878H95.9874L101.005 44.7922Z" fill="#060B04"/>
<path d="M102.319 31.3174H112.237V34.2986H105.847V44.7922H102.319V31.3174Z" fill="#060B04"/>
<path d="M125.505 44.7922H122.096L122.332 35.8188L117.757 44.7922H113.905V31.3174H117.314L117.196 40.2907L121.771 31.3174H125.505V44.7922Z" fill="#060B04"/>
<path d="M140.633 39.5233C140.589 40.5711 140.486 40.9696 140.013 41.9142C138.966 44.069 137.136 45.1169 134.479 45.1169C130.317 45.1169 127.764 42.0913 127.764 38.0179C127.764 33.9444 130.538 30.9927 134.523 30.9927C137.519 30.9927 140.309 32.867 140.56 36.0697H137.106C136.811 34.6676 135.896 33.9444 134.449 33.9444C132.531 33.9444 131.306 35.5679 131.306 38.0917C131.306 40.6154 132.546 42.1208 134.449 42.1208C135.999 42.1208 136.899 41.25 137.15 39.5233H140.633Z" fill="#060B04"/>
<path d="M153.4 34.2986H149.43V44.7922H145.887V34.2986H141.903V31.3174H153.4V34.2986Z" fill="#060B04"/>
<path d="M160.72 37.5604C161.93 37.5604 163.037 37.4718 163.037 35.8926C163.037 34.5791 162.225 34.1953 161 34.1953H158.742V37.5604H160.72ZM155.244 31.3174H161.148C164.218 31.3174 166.446 32.5276 166.446 35.8631C166.446 38.8886 164.498 40.2907 161.723 40.2907H158.772V44.7922H155.259V31.3026L155.244 31.3174Z" fill="#060B04"/>
<path d="M172.468 35.0809L170.918 39.8037H173.973L172.468 35.0809ZM179.242 44.7922H175.626L174.755 42.3274H170.121L169.235 44.7922H165.664L170.696 31.2878H174.239L179.257 44.7922H179.242Z" fill="#060B04"/>
<path d="M192.157 44.7922H188.629V34.2986H185.648L185.486 39.5528C185.353 43.3606 183.67 45.0578 181.383 45.0578C180.851 45.0578 179.936 44.9398 179.538 44.8069V41.988C179.759 42.0765 180.202 42.1651 180.571 42.1651C181.368 42.1651 182.003 41.8256 182.076 39.0657L182.298 31.3174H192.157V44.8069V44.7922Z" fill="#060B04"/>
<path d="M200.097 38.564H198.311V41.929H200.2C201.691 41.929 202.429 41.5305 202.429 40.2317C202.429 38.7411 201.322 38.564 200.111 38.564M200.702 44.7922H194.798V31.3026H198.311V35.8041H200.894C204.023 35.8041 206 37.2061 206 40.2317C206 43.4934 204.037 44.7774 200.702 44.7774" fill="#060B04"/>
</g>
</g>
<defs>
<clipPath id="clip0_1_15560">
<rect width="206.002" height="57.8555" fill="white"/>
</clipPath>
<clipPath id="clip1_1_15560">
<rect width="205" height="57.5742" fill="white" transform="translate(1 0.382877)"/>
</clipPath>
</defs>
</svg>
