<svg width="160" height="41" viewBox="0 0 160 41" fill="none" xmlns="http://www.w3.org/2000/svg">
<path d="M55.3026 39.3472C53.9115 39.38 52.8682 39.3013 52.1661 39.0913C51.464 38.8879 51.1096 38.1136 51.1096 36.775V5.15383C51.1096 4.07114 51.3787 3.34278 51.9233 2.96876C52.4614 2.59474 53.5178 2.45038 55.0795 2.52256H56.3656C56.8118 2.56193 57.0349 2.40445 57.0349 2.05011C57.0349 1.73515 56.6609 1.5711 55.9129 1.5711H42.3037L34.7446 27.3392C33.7997 24.4323 28.3469 11.9125 23.3337 5.88219C18.1827 -0.318684 13.4713 0.00283847 12.8808 0.00283847C9.40958 0.00283847 6.53553 1.05929 4.25859 3.15905C1.98166 5.26538 0.846468 7.92946 0.846468 11.1382C0.846468 13.8613 1.51577 16.2104 2.86093 18.1921C4.31765 20.3575 7.08015 22.5228 11.1419 24.6817C14.8034 26.6633 16.9622 27.9888 17.6315 28.6581C17.9727 29.0124 18.2483 29.4127 18.4583 29.8589C18.7995 30.5873 18.9701 31.4337 18.9701 32.4049C18.9701 33.3104 18.7995 34.1569 18.4583 34.9312C18.1171 35.712 17.5921 36.4141 16.9031 37.0572C15.5186 38.3236 13.8257 38.9601 11.8112 38.9601C9.53426 38.9601 7.40824 38.1399 5.43315 36.4929C3.60241 34.9705 2.42786 32.8183 1.90948 30.0623C1.60763 28.4612 1.27298 27.6541 0.898962 27.6541C0.524941 27.6541 0.341212 27.956 0.341212 28.5531C0.341212 28.7762 0.380583 29.5243 0.452763 30.7907C0.485572 31.4272 0.505257 32.2868 0.505257 33.3629C0.505257 34.7081 0.433077 35.8826 0.282156 36.8866C0.0984268 38.1202 0 38.9798 0 39.4588C0 39.9837 0.144359 40.2462 0.446201 40.2462C0.62993 40.2462 0.780851 40.0428 0.892402 39.636C1.22705 38.2908 1.71918 37.6215 2.34911 37.6215C2.57221 37.6215 2.83469 37.674 3.13653 37.7855C7.12609 39.3144 10.2626 40.0821 12.5395 40.0821C12.5855 40.0821 12.638 40.0821 12.6839 40.0821C15.617 40.0625 18.1433 39.3472 20.2496 37.9364C20.7746 37.5952 21.2733 37.195 21.7457 36.7619C24.1539 34.5375 25.3547 31.7356 25.3547 28.3366C25.3547 25.3182 24.4032 22.8116 22.5003 20.8365C21.9623 20.2787 21.1945 19.6488 20.1906 18.9401C19.6722 18.5792 19.0948 18.1921 18.4583 17.7852C17.3296 17.0766 16.0042 16.2957 14.495 15.4558C11.2075 13.6251 8.98963 12.129 7.83476 10.9479C6.67988 9.77332 6.10245 8.4216 6.10245 6.88614C6.10245 5.13415 6.71269 3.75617 7.95287 2.74566C9.18648 1.73515 10.84 1.23645 12.9267 1.23645C13.7797 1.23645 14.5737 1.34144 15.3021 1.5711C15.8532 1.72858 16.3585 1.95169 16.8441 2.24041C16.9425 2.29946 22.3625 4.16301 25.8075 13.1198C29.2589 22.0898 30.7288 38.1595 30.7682 38.2842C31.1028 39.3275 31.4768 39.8459 31.8837 39.8459C32.2577 39.8459 32.7432 38.8026 33.3404 36.716L38.2092 19.5897C40.1712 12.8377 41.7526 7.91634 42.9665 4.81262V35.2002C42.9665 37.254 42.914 38.3695 42.8024 38.5598C42.4284 39.1963 41.3785 39.4982 39.6659 39.4588H37.7564C37.2381 39.4588 36.9756 39.6228 36.9756 39.9378C36.9756 40.2528 37.2381 40.4102 37.7564 40.4102H56.2278C56.9759 40.4102 57.3433 40.2265 57.3433 39.8525C57.3433 39.4785 56.6543 39.3144 55.2633 39.3538" fill="white"/>
<path d="M77.7242 21.4664C77.7242 23.2578 77.0877 24.7342 75.8213 25.9021C74.5549 27.0701 72.9407 27.6541 70.9721 27.6541C69.7713 27.6541 68.1243 27.2539 66.018 26.4468C65.8605 26.3877 65.7227 26.3615 65.6046 26.3615C65.27 26.3615 65.0141 26.7158 64.8369 27.4245C64.7778 27.641 64.6991 27.746 64.6007 27.746C64.4432 27.746 64.3644 27.6082 64.3644 27.3326C64.3644 27.0767 64.4104 26.6239 64.5088 25.9743C64.5875 25.4428 64.6269 24.826 64.6269 24.1173C64.6269 23.5465 64.6204 23.0937 64.6007 22.7591C64.5613 22.0898 64.5416 21.6961 64.5416 21.5779C64.5416 21.263 64.64 21.1055 64.8369 21.1055C65.0337 21.1055 65.2109 21.5254 65.3684 22.3719C65.644 23.8286 66.2608 24.9573 67.2254 25.7578C68.2687 26.6239 69.3842 27.057 70.585 27.057C71.648 27.057 72.5404 26.7224 73.2688 26.0531C73.9971 25.3838 74.358 24.5701 74.358 23.6055C74.358 22.7787 74.1218 22.1226 73.6494 21.6304C73.295 21.2761 72.1533 20.5806 70.2307 19.5372C68.0915 18.3955 66.6348 17.2603 65.8671 16.1185C65.1584 15.0752 64.8041 13.8416 64.8041 12.4046C64.8041 10.7182 65.4012 9.31399 66.602 8.20505C67.8028 7.09611 69.312 6.53836 71.1427 6.53836C72.127 6.53836 73.1769 6.77458 74.299 7.24703C74.673 7.40451 74.9355 7.48325 75.0929 7.48325C75.3882 7.48325 75.5851 7.22735 75.6835 6.71553C75.7229 6.53836 75.8082 6.45306 75.946 6.45306C76.1428 6.45306 76.2412 6.58429 76.2412 6.83364C76.2412 6.93207 76.2216 7.20766 76.1822 7.66043C76.1428 8.11319 76.1231 8.48721 76.1231 8.78249C76.1231 9.80612 76.1625 10.6723 76.2412 11.3744C76.2609 11.4334 76.2741 11.5122 76.2741 11.6106C76.2741 11.7878 76.1953 11.8731 76.0378 11.8731C75.8607 11.8731 75.6835 11.5581 75.5063 10.9282C75.3292 10.2983 75.0208 9.67489 74.5811 9.05808C74.1415 8.44127 73.6953 7.99507 73.2425 7.71948C72.652 7.36514 71.963 7.18798 71.1821 7.18798C70.0797 7.18798 69.207 7.45045 68.5574 7.98195C67.9078 8.51345 67.5863 9.24181 67.5863 10.1605C67.5863 10.9676 67.8881 11.6762 68.4984 12.2996C69.1086 12.9164 70.2766 13.7104 72.0023 14.675C74.1218 15.8561 75.526 16.7944 76.215 17.5031C77.219 18.5464 77.7176 19.8588 77.7176 21.4533" fill="white"/>
<path d="M86.7138 18.5202C86.7335 17.0175 86.6285 15.9742 86.3923 15.3902C86.1561 14.8062 85.7427 14.5109 85.1521 14.5109C83.9513 14.5109 83.2689 15.8495 83.0917 18.5202H86.7138ZM90.4278 23.6777C90.4278 24.1108 90.1719 24.6817 89.6601 25.3903C88.5577 26.9061 87.1272 27.6607 85.3555 27.6607C83.3739 27.6607 81.74 27.0308 80.4605 25.7775C79.1809 24.5242 78.5444 22.91 78.5444 20.9415C78.5444 18.9729 79.1612 17.4112 80.4014 16.1251C81.6416 14.839 83.1836 14.196 85.0275 14.196C86.2873 14.196 87.3569 14.4716 88.2427 15.0227C89.227 15.633 89.8635 16.5057 90.1588 17.6474C90.2375 18.0018 90.2966 18.4217 90.3359 18.9139C89.8832 18.9664 88.0656 19.0057 84.8831 19.032C84.391 19.032 83.7742 19.0517 83.0261 19.091C82.9671 19.7931 82.9343 20.3903 82.9343 20.8824C82.9343 23.1725 83.4133 24.7998 84.3778 25.7578C84.9487 26.3287 85.6443 26.6108 86.471 26.6108C87.16 26.6108 87.8228 26.3746 88.4593 25.9022C89.0958 25.4297 89.5813 24.8195 89.916 24.078C90.0735 23.704 90.1981 23.5202 90.2966 23.5202C90.3753 23.5202 90.4147 23.5793 90.4147 23.6974" fill="white"/>
<path d="M101.832 16.3679C101.832 16.9388 101.662 17.4047 101.333 17.7656C100.999 18.1265 100.566 18.3102 100.034 18.3102C98.9712 18.3102 98.4397 17.8181 98.4397 16.8404C98.4397 16.5057 98.5644 16.1711 98.8203 15.8364C98.8793 15.7577 98.9121 15.692 98.9121 15.633C98.9121 15.4558 98.7875 15.3705 98.5316 15.3705C97.8754 15.3705 97.3701 15.8889 97.0224 16.9257C96.8255 17.5162 96.7336 18.9532 96.7336 21.2499V25.9809C96.7336 26.5124 96.9961 26.7946 97.5276 26.8339C97.8426 26.8536 98.2166 26.8667 98.6497 26.8667C98.8662 26.8864 98.9778 26.952 98.9778 27.0702C98.9778 27.2276 98.8859 27.3064 98.7153 27.3064H90.9921C90.7755 27.3064 90.6706 27.2408 90.6706 27.1161C90.6706 26.9914 90.8084 26.9258 91.084 26.9258C91.8911 26.9061 92.3766 26.8208 92.5407 26.6765C92.7047 26.5321 92.79 26.0925 92.79 25.3707L92.7638 17.4375C92.7638 16.7682 92.6719 16.3089 92.4816 16.0529C92.2913 15.797 91.8779 15.6396 91.2283 15.5805C90.7165 15.5411 90.4278 15.5149 90.3556 15.4952C90.2834 15.4755 90.2506 15.4099 90.2506 15.3049C90.2506 15.1999 90.3294 15.1409 90.4868 15.1409H91.5761C93.0919 15.1409 94.7192 14.8259 96.4712 14.196C96.5696 14.5897 96.6155 15.0424 96.6155 15.5542V16.7944C96.9895 15.843 97.3964 15.1737 97.8426 14.7865C98.2822 14.3994 98.8597 14.2025 99.5683 14.2025C100.238 14.2025 100.782 14.4125 101.202 14.8193C101.622 15.2327 101.839 15.7511 101.839 16.381" fill="white"/>
<path d="M110.258 18.5202C110.278 17.0175 110.173 15.9742 109.936 15.3902C109.7 14.8062 109.287 14.5109 108.696 14.5109C107.495 14.5109 106.813 15.8495 106.636 18.5202H110.258ZM113.972 23.6777C113.972 24.1108 113.716 24.6817 113.204 25.3903C112.102 26.9061 110.671 27.6607 108.9 27.6607C106.918 27.6607 105.284 27.0308 104.005 25.7775C102.725 24.5242 102.089 22.91 102.089 20.9415C102.089 18.9729 102.705 17.4112 103.945 16.1251C105.186 14.839 106.728 14.196 108.572 14.196C109.831 14.196 110.901 14.4716 111.787 15.0227C112.771 15.633 113.408 16.5057 113.703 17.6474C113.782 18.0018 113.841 18.4217 113.88 18.9139C113.427 18.9664 111.61 19.0057 108.427 19.032C107.935 19.032 107.318 19.0517 106.57 19.091C106.511 19.7931 106.478 20.3903 106.478 20.8824C106.478 23.1725 106.957 24.7998 107.922 25.7578C108.493 26.3287 109.188 26.6108 110.015 26.6108C110.704 26.6108 111.367 26.3746 112.003 25.9022C112.64 25.4297 113.125 24.8195 113.46 24.078C113.618 23.704 113.742 23.5202 113.841 23.5202C113.919 23.5202 113.959 23.5793 113.959 23.6974" fill="white"/>
<path d="M129.798 27.0964C129.798 27.2539 129.549 27.3326 129.063 27.3326H122.757C122.482 27.3326 122.344 27.2604 122.344 27.1095C122.344 26.9849 122.462 26.9192 122.692 26.9192H122.921C123.42 26.9192 123.715 26.8536 123.801 26.7289C123.886 26.5977 123.932 26.1581 123.932 25.41V19.6947C123.932 17.5818 123.794 16.3154 123.525 15.902C123.295 15.5477 122.875 15.3705 122.278 15.3705C121.681 15.3705 121.183 15.5542 120.795 15.9283C120.408 16.3023 120.218 16.7682 120.218 17.339V26.2499C120.257 26.4862 120.343 26.6371 120.467 26.7027C120.592 26.7683 120.914 26.8142 121.425 26.8339C121.583 26.8339 121.662 26.893 121.662 27.0111C121.662 27.1292 121.596 27.1948 121.458 27.2145C121.32 27.2342 120.828 27.2408 119.988 27.2408C119.148 27.2408 118.446 27.2539 117.895 27.267C116.812 27.3064 115.717 27.3261 114.595 27.3261C114.358 27.3261 114.24 27.2604 114.24 27.1227C114.24 26.9652 114.542 26.8864 115.139 26.8864C115.736 26.8864 116.084 26.7683 116.182 26.5321L116.268 26.1187V19.3601C116.268 17.4572 116.248 16.4729 116.209 16.3941C116.15 16.0989 115.887 15.9545 115.415 15.9545H114.411C114.096 15.9545 113.938 15.8889 113.938 15.7642C113.938 15.6396 114.056 15.5608 114.293 15.5411C116.484 15.4427 118.23 14.9834 119.542 14.1566C119.7 14.0779 119.805 14.0385 119.864 14.0385C120.021 14.0385 120.1 14.196 120.1 14.5109V16.1907C121.143 14.8324 122.475 14.1566 124.109 14.1566C125.743 14.1566 126.898 14.7472 127.41 15.9217C127.626 16.4138 127.757 16.965 127.81 17.5687C127.856 18.179 127.882 19.4388 127.882 21.3417V25.6134C127.882 26.2237 127.928 26.578 128.033 26.6896C128.131 26.7946 128.446 26.8536 128.991 26.8536C129.536 26.8536 129.805 26.9324 129.805 27.0898" fill="white"/>
<path d="M135.659 8.40847C135.659 8.95966 135.468 9.43211 135.088 9.82581C134.707 10.2195 134.241 10.4164 133.703 10.4164C133.165 10.4164 132.666 10.2326 132.286 9.85862C131.905 9.4846 131.715 9.01215 131.715 8.44128C131.715 7.87041 131.905 7.43733 132.286 7.08299C132.666 6.72866 133.158 6.55149 133.762 6.55149C134.307 6.55149 134.753 6.72866 135.12 7.08299C135.481 7.43733 135.665 7.87697 135.665 8.40847M137.725 27.0964C137.725 27.2342 137.634 27.2998 137.463 27.2998H130.035C129.799 27.2998 129.681 27.2342 129.681 27.1095C129.681 27.0177 129.904 26.9586 130.357 26.9455C131.026 26.9258 131.42 26.8536 131.538 26.7224C131.656 26.5911 131.715 26.204 131.715 25.5544V17.0503C131.715 16.3023 131.649 15.8495 131.525 15.7052C131.4 15.5542 131.006 15.4821 130.363 15.4821C129.95 15.4821 129.707 15.4755 129.641 15.4558C129.569 15.4361 129.536 15.3639 129.536 15.2458C129.536 15.108 129.687 15.0424 129.976 15.0424C132.135 15.0227 133.985 14.6881 135.514 14.0385C135.554 14.2747 135.599 14.9243 135.659 15.9808V25.2657C135.659 26.0728 135.731 26.5452 135.882 26.683C136.026 26.8208 136.531 26.8864 137.397 26.8864C137.614 26.8864 137.719 26.9586 137.719 27.0898" fill="white"/>
<path d="M147.358 25.3838C147.358 25.6003 147.167 25.8825 146.793 26.2368C145.822 27.162 144.49 27.6213 142.784 27.6213C141.222 27.6213 140.192 27.2408 139.7 26.473C139.503 26.1777 139.385 25.9022 139.359 25.6462C139.333 25.3903 139.313 24.7342 139.313 23.6712V22.2538C139.352 21.8798 139.372 21.4861 139.372 21.0727L139.313 20.4559V15.6789C139.313 15.3246 139.26 15.1212 139.169 15.0621C139.07 15.003 138.775 14.9768 138.283 14.9768C137.692 14.9768 137.397 14.8981 137.397 14.7406C137.397 14.6225 137.502 14.5437 137.718 14.5044C139.562 14.4453 141.157 13.4413 142.495 11.4991C142.673 11.2235 142.81 11.0857 142.909 11.0857C143.027 11.0857 143.086 11.2235 143.086 11.4991C143.066 13.192 143.132 14.1107 143.289 14.2681C143.447 14.4256 143.926 14.5044 144.733 14.5044C145.54 14.5044 146.137 14.465 146.472 14.3862C146.511 14.3666 146.551 14.36 146.59 14.36C146.669 14.36 146.708 14.4191 146.708 14.5437C146.708 14.8324 146.583 14.9768 146.327 14.9768C145.527 14.9965 144.641 15.0096 143.67 15.0096H143.263V15.6264C143.263 20.8627 143.303 23.9336 143.381 24.8326C143.558 25.9678 144.116 26.5321 145.055 26.5321C145.474 26.5321 146.013 26.2368 146.669 25.6462C146.99 25.3707 147.187 25.2329 147.266 25.2329C147.325 25.2329 147.358 25.2853 147.358 25.3772" fill="white"/>
<path d="M159.057 14.7143C159.057 14.8521 159.018 14.9374 158.939 14.9637C158.861 14.9899 158.585 15.0096 158.113 15.0096C157.581 15.0096 157.266 15.0359 157.168 15.1015L156.99 15.423L156.636 16.4532C156.479 16.9257 156.124 17.8771 155.573 19.3141C155.534 19.4323 155.101 20.6396 154.274 22.9362C152.332 28.3759 151.072 31.67 150.501 32.8051C149.792 34.2159 148.887 34.9246 147.791 34.9246C147.161 34.9246 146.656 34.7409 146.275 34.3669C145.894 33.9928 145.698 33.5007 145.698 32.8905C145.698 31.9259 146.229 31.4469 147.286 31.4469C147.64 31.4469 147.922 31.565 148.139 31.8012C148.237 31.8996 148.401 32.1752 148.637 32.628C148.775 32.8248 148.959 32.9233 149.195 32.9233C149.589 32.9233 149.963 32.5952 150.33 31.939C150.691 31.2828 151.19 30.0361 151.82 28.2119C151.662 27.8969 151.36 27.2014 150.908 26.1187C150.317 24.6292 149.53 22.6738 148.545 20.2525C148.309 19.6619 147.778 18.3758 146.957 16.3941C146.682 15.6986 146.446 15.2852 146.249 15.154C146.052 15.0227 145.599 14.944 144.891 14.9243C144.654 14.9243 144.536 14.8587 144.536 14.7143C144.536 14.57 144.654 14.5109 144.891 14.5109H152.108C152.325 14.5109 152.43 14.5765 152.43 14.7143C152.43 14.8915 152.135 14.9702 151.544 14.9506C150.954 14.9309 150.658 15.0555 150.658 15.3311C150.658 15.528 150.737 15.8298 150.895 16.2432C151.111 16.7944 151.229 17.1159 151.249 17.2144C152.213 19.885 153.001 21.9192 153.605 23.3168C155.429 18.658 156.347 16.007 156.347 15.3574C156.347 15.1409 156.124 15.0359 155.672 15.0359C154.727 15.0359 154.254 14.9506 154.254 14.7734C154.254 14.5962 154.372 14.5109 154.609 14.5109C154.805 14.5109 155.002 14.5175 155.199 14.5372C155.573 14.5765 156.085 14.5962 156.728 14.5962C156.807 14.5962 157.095 14.5831 157.601 14.5503C158.099 14.524 158.427 14.5044 158.592 14.5044H158.769C158.946 14.5044 159.031 14.57 159.031 14.7078" fill="white"/>
<path d="M72.324 40.1478C72.324 40.2199 72.2518 40.2593 72.1009 40.2593H68.4788C68.3738 40.2593 68.3279 40.2265 68.3279 40.1674C68.3279 40.1084 68.3804 40.0756 68.4788 40.0756H68.8528C69.1875 40.0821 69.3909 40.0231 69.4696 39.8984C69.4893 39.859 69.5024 39.6425 69.5024 39.2357V33.2776C69.2662 33.8878 68.9578 34.8524 68.5707 36.1779L67.6126 39.5375C67.4945 39.9443 67.4027 40.1543 67.3239 40.1543C67.2452 40.1543 67.173 40.0493 67.1074 39.8459C67.0877 39.7803 66.8515 39.0782 66.4053 37.7396C66.2347 37.2343 65.7819 35.817 65.0339 33.4941V39.1897C65.0339 39.5178 65.0339 39.7147 65.047 39.7803C65.0535 39.8459 65.0864 39.8984 65.1454 39.9378C65.257 40.0362 65.4407 40.0756 65.7032 40.069C65.9656 40.0625 66.0969 40.1018 66.0969 40.1871C66.0969 40.2396 66.0444 40.2659 65.9328 40.2659L64.9551 40.2199C64.7845 40.2134 64.5942 40.2199 64.3711 40.2331C64.0758 40.2527 63.879 40.2593 63.7806 40.2593C63.6296 40.2593 63.5509 40.2265 63.5509 40.1609C63.5509 40.1018 63.6165 40.0756 63.7346 40.0756C64.0299 40.0756 64.2005 40.0756 64.2596 40.0625C64.4892 40.0362 64.6205 39.9509 64.6533 39.8065C64.673 39.7212 64.6861 39.5375 64.6861 39.2554V34.0125C64.6861 33.4285 64.6533 33.0807 64.5811 32.9823C64.5089 32.8839 64.253 32.8314 63.7937 32.8314C63.6756 32.8314 63.6165 32.7986 63.6165 32.733C63.6165 32.6608 63.6756 32.628 63.8002 32.6345H66.1625C66.1625 32.6345 66.2215 32.6345 66.2806 32.6477C66.904 34.6687 67.4355 36.3485 67.8686 37.6871L69.3515 32.6345H69.5812H71.0313H72.0222C72.1665 32.6345 72.2387 32.6673 72.2387 32.7264C72.2387 32.7986 72.1928 32.8248 72.1074 32.8183H71.8515C71.5431 32.8051 71.3397 32.8314 71.2347 32.9036C71.1298 32.9757 71.0773 33.1201 71.0773 33.3301V39.531C71.0773 39.7934 71.1429 39.9443 71.2872 39.9837C71.425 40.0231 71.6284 40.0428 71.904 40.0362C72.1796 40.0297 72.3109 40.0625 72.3109 40.1346" fill="white"/>
<path d="M80.7623 38.3039C80.7623 38.3039 80.7623 38.6583 80.7492 39.3276C80.7427 39.6753 80.7361 39.9312 80.7361 40.0822C80.7361 40.2331 80.7361 40.3118 80.7361 40.2987C78.8069 40.2134 77.114 40.1871 75.6638 40.22H74.7452C74.614 40.22 74.5483 40.1937 74.5483 40.1346C74.5483 40.0953 74.5615 40.069 74.5943 40.0625C74.6271 40.0559 74.7386 40.0428 74.9289 40.0297C75.2701 40.01 75.4604 39.9115 75.4867 39.7344C75.4998 39.6425 75.5064 39.531 75.5064 39.4128V33.855C75.5064 33.4154 75.5064 33.1726 75.4932 33.1332C75.4867 33.0151 75.4473 32.9364 75.3817 32.8905C75.3161 32.8445 75.1783 32.8248 74.9749 32.8248C74.7452 32.8248 74.6336 32.792 74.6336 32.7264C74.6336 32.6542 74.7321 32.6149 74.9355 32.6149C75.1389 32.6149 75.4145 32.6149 75.7754 32.6017C77.1206 32.5755 78.2229 32.5624 79.076 32.5821H79.824C79.9881 32.5821 80.1849 32.5689 80.4146 32.5492L80.513 33.7435C80.5524 34.1241 80.5655 34.3603 80.5655 34.4456C80.5655 34.5178 80.5261 34.5571 80.4539 34.5571C80.3818 34.5571 80.3358 34.4587 80.3096 34.275C80.244 33.7697 80.0405 33.4023 79.6993 33.1726C79.3581 32.9429 78.8529 32.8248 78.1836 32.8248C77.9802 32.8248 77.6258 32.838 77.1271 32.8576V36.0992C77.9342 36.1057 78.446 36.0467 78.656 35.9285C78.866 35.8104 79.0038 35.4955 79.0825 34.9902C79.1219 34.7212 79.1744 34.5834 79.2466 34.5834C79.3122 34.5834 79.345 34.649 79.345 34.7802C79.345 34.9115 79.3319 35.1805 79.3122 35.5939C79.3056 35.7317 79.2991 35.922 79.2991 36.1516C79.2991 36.7816 79.3056 37.254 79.3188 37.5756C79.3253 37.6215 79.3319 37.674 79.3319 37.7396C79.3319 37.8249 79.2991 37.8708 79.2334 37.8708C79.181 37.8708 79.1481 37.8512 79.135 37.8183C79.1219 37.7855 79.0956 37.6674 79.0694 37.464C78.9972 36.9456 78.8922 36.6241 78.7676 36.4929C78.6363 36.3616 78.341 36.3026 77.8817 36.3026H77.1337V39.9903H77.8358C78.6429 39.9772 79.135 39.9575 79.3122 39.9378C79.5353 39.9115 79.7453 39.8262 79.9487 39.695C80.1324 39.5507 80.2571 39.3932 80.3293 39.2226C80.4014 39.052 80.4736 38.7436 80.5524 38.2908C80.5721 38.1792 80.6114 38.1267 80.6639 38.1267C80.723 38.1267 80.7558 38.1792 80.7558 38.2908" fill="white"/>
<path d="M88.84 36.3879C88.84 35.1805 88.6628 34.2947 88.3019 33.7304C87.941 33.166 87.3833 32.8905 86.609 32.8905C86.3334 32.8905 86.1497 32.9233 86.0578 32.9757C85.9397 33.0479 85.8806 33.2185 85.8806 33.4941V39.1241C85.8806 39.6097 85.9069 39.8787 85.9659 39.9247C86.0512 40.0034 86.2481 40.0493 86.5499 40.0493C88.0723 40.0493 88.8334 38.8288 88.8334 36.3879M90.7429 36.3813C90.7429 37.2147 90.5526 37.9365 90.172 38.5467C89.7783 39.1832 89.2009 39.6491 88.4463 39.9378C87.9345 40.1346 87.1667 40.2331 86.1497 40.2331H83.4725C83.3609 40.2331 83.3084 40.2068 83.3084 40.1478C83.3084 40.0756 83.4134 40.0428 83.6168 40.0493C83.9318 40.0559 84.1221 40.0034 84.1877 39.8853C84.2139 39.8328 84.2336 39.6097 84.2336 39.216V33.6319C84.2336 33.3104 84.2139 33.1135 84.168 33.0414C84.0958 32.9101 83.9055 32.8445 83.6102 32.8576C83.4528 32.8642 83.3675 32.8314 83.3675 32.7461C83.3675 32.6805 83.42 32.6477 83.5184 32.6477H83.7152C84.1549 32.6477 84.5814 32.6477 84.9882 32.6608C85.5722 32.6673 86.025 32.6739 86.3465 32.6739C87.6786 32.6739 88.7022 32.9495 89.4109 33.4941C90.2967 34.1831 90.7363 35.1477 90.7363 36.3944" fill="white"/>
<path d="M96.8584 40.1412C96.8584 40.2068 96.8124 40.2331 96.714 40.2331C96.6615 40.2331 96.6156 40.2331 96.5696 40.2199C96.13 40.2003 95.756 40.1871 95.441 40.1871C95.1261 40.1871 94.6274 40.2003 93.9909 40.2199C93.7809 40.2265 93.6234 40.2331 93.5184 40.2331C93.4069 40.2331 93.3544 40.2003 93.3544 40.1346C93.3544 40.0953 93.3741 40.0756 93.4134 40.069C93.4528 40.0625 93.5972 40.0559 93.8334 40.0493C94.063 40.0034 94.1943 39.9378 94.2271 39.8459C94.2665 39.7541 94.2796 39.4588 94.2796 38.9601V33.271C94.273 33.1398 94.2665 33.0807 94.2665 33.0873C94.2665 32.9036 94.0827 32.8117 93.7153 32.8117C93.5119 32.8117 93.4069 32.7855 93.4069 32.733C93.4069 32.6805 93.42 32.6542 93.4528 32.6477C93.4856 32.6411 93.5775 32.6345 93.7415 32.6345H96.6287C96.7271 32.6345 96.7731 32.6608 96.7731 32.7198C96.7731 32.7592 96.7534 32.7854 96.7206 32.7986C96.6878 32.8117 96.5762 32.8183 96.3859 32.8248C96.1562 32.8379 96.0184 32.8839 95.966 32.9692L95.9332 33.1792V39.3735C95.9332 39.6884 95.966 39.8722 96.0381 39.9312C96.1103 39.9903 96.34 40.0296 96.7468 40.0493C96.8124 40.0559 96.8452 40.0887 96.8452 40.1412" fill="white"/>
<path d="M103.177 37.5427C103.177 37.5427 103.145 37.4509 103.099 37.3328C102.803 36.4863 102.593 35.8892 102.456 35.5414C102.423 35.443 102.37 35.3052 102.311 35.1215L102.239 34.9246C102.108 35.2396 101.95 35.6726 101.76 36.2304C101.55 36.8538 101.393 37.2868 101.301 37.5362H103.177V37.5427ZM106.668 40.115C106.668 40.174 106.642 40.2068 106.583 40.22C106.53 40.2331 106.386 40.2396 106.163 40.2396C106.104 40.2396 105.94 40.2396 105.671 40.2265C105.133 40.2134 104.759 40.2068 104.549 40.2068C104.306 40.2068 104.096 40.2068 103.912 40.22C103.545 40.2331 103.296 40.2396 103.164 40.2396C102.967 40.2396 102.869 40.2003 102.869 40.1281C102.869 40.0559 103.079 40.0165 103.492 40.0034C103.597 40.0034 103.67 40.0034 103.722 39.9837C103.84 39.9706 103.899 39.9247 103.899 39.8525C103.899 39.8131 103.853 39.6622 103.768 39.3932L103.538 38.6779C103.492 38.5139 103.4 38.2186 103.256 37.7855H102.2C101.891 37.779 101.57 37.7855 101.222 37.7987C101.156 37.943 101.032 38.2777 100.848 38.7895L100.605 39.5047C100.566 39.6163 100.553 39.7016 100.553 39.7672C100.553 39.8919 100.631 39.9706 100.795 40.01C100.835 40.0165 101.012 40.0297 101.334 40.0559C101.439 40.0625 101.484 40.0953 101.484 40.1478C101.484 40.2068 101.419 40.2396 101.288 40.2396H99.3322C99.2272 40.2396 99.1813 40.2003 99.1813 40.1281C99.1813 40.0822 99.2928 40.0559 99.5225 40.0428C99.8178 40.0297 100.001 39.9706 100.08 39.8787C100.159 39.7869 100.29 39.4785 100.474 38.9535C100.612 38.5861 100.815 38.048 101.078 37.3328L102.403 33.6779C102.469 33.5204 102.561 33.2645 102.679 32.9233C102.757 32.6739 102.823 32.5492 102.869 32.5492C102.915 32.5492 102.994 32.7198 103.112 33.0545C103.256 33.4876 103.906 35.1936 105.041 38.1727C105.185 38.5533 105.336 38.9404 105.481 39.3341C105.605 39.6688 105.73 39.8787 105.855 39.9509C105.953 40.01 106.176 40.0362 106.537 40.0297C106.622 40.0297 106.668 40.0625 106.668 40.1281" fill="white"/>
</svg>
